<svg class="svg-icon" style="width: 1em; height: 1em;vertical-align: middle;fill: currentColor;overflow: hidden;" viewBox="0 0 1024 1024" version="1.1" xmlns="http://www.w3.org/2000/svg"><path d="M565.638095 600.30781c-4.87619 24.380952-7.314286 51.2-12.190476 75.580952-2.438095 9.752381-12.190476 41.447619 12.190476 34.133333 31.695238-17.066667 60.952381-36.571429 90.209524-56.07619l-90.209524-53.638095z m14.628572-21.942858l87.771428 56.076191 153.6-224.304762-95.085714-63.390476-146.285714 231.619047z m160.914285-248.685714l90.209524 56.076191c19.504762-12.190476 26.819048-36.571429 17.066667-56.076191-19.504762-14.628571-39.009524-39.009524-63.390476-39.009524-7.314286 0-14.628571 2.438095-21.942857 7.314286-2.438095 2.438095-24.380952 29.257143-21.942858 31.695238z"  /><path d="M551.009524 568.612571c4.87619-12.190476 9.752381-24.380952 17.066666-34.133333 12.190476-19.504762 148.72381-226.742857 151.161905-231.619048 2.438095-4.87619 9.752381-14.628571 9.752381-19.504761v-14.628572c2.438095-12.190476-2.438095-21.942857-9.752381-31.695238-9.752381-7.314286-19.504762-14.628571-31.695238-17.066667-9.752381-2.438095-17.066667-2.438095-26.819047 0H256c-19.504762 0-31.695238 21.942857-36.571429 39.009524v65.828572h24.380953c26.819048 0 48.761905 21.942857 48.761905 48.761904v12.190477c0 26.819048-21.942857 48.761905-48.761905 48.761904H219.428571v29.257143h24.380953c26.819048 0 48.761905 21.942857 48.761905 48.761905v12.190476c0 26.819048-21.942857 48.761905-48.761905 48.761905H219.428571v29.257143h24.380953c26.819048 0 48.761905 21.942857 48.761905 48.761905v12.190476c0 26.819048-21.942857 48.761905-48.761905 48.761904H219.428571v53.638096c0 19.504762 9.752381 48.761905 34.133334 48.761904h436.419047c14.628571-2.438095 24.380952-12.190476 31.695238-24.380952 4.87619-14.628571 7.314286-29.257143 4.876191-43.885714v-143.847619c-2.438095 2.438095-43.885714 65.828571-51.2 73.142857-7.314286 7.314286-19.504762 14.628571-29.257143 17.066667-21.942857 9.752381-82.895238 41.447619-114.590476 58.514285-4.87619 2.438095-12.190476 0-14.628572-4.87619-2.438095-2.438095-2.438095-4.87619 0-7.314286 9.752381-46.32381 24.380952-146.285714 29.257143-158.47619 2.438095-2.438095 2.438095-7.314286 4.876191-12.190477z m-173.104762-243.809523h195.047619c14.628571 0 24.380952 9.752381 24.380952 24.380952s-9.752381 24.380952-24.380952 24.380952h-195.047619c-14.628571 0-24.380952-9.752381-24.380952-24.380952 0-12.190476 9.752381-24.380952 24.380952-24.380952z m121.904762 177.980952h-121.904762c-14.628571 0-24.380952-9.752381-24.380952-24.380952s9.752381-24.380952 24.380952-24.380953h121.904762c12.190476 0 24.380952 9.752381 24.380952 21.942857v2.438096c0 14.628571-12.190476 24.380952-24.380952 24.380952z"  /><path d="M243.809524 349.184H195.047619c-12.190476 0-24.380952 12.190476-24.380952 24.380952v12.190477c0 12.190476 12.190476 24.380952 24.380952 24.380952h48.761905c12.190476 0 24.380952-12.190476 24.380952-24.380952v-12.190477c0-12.190476-12.190476-21.942857-24.380952-24.380952z m0 141.409524H195.047619c-12.190476 0-24.380952 12.190476-24.380952 24.380952v12.190476c0 12.190476 12.190476 24.380952 24.380952 24.380953h48.761905c12.190476 0 24.380952-12.190476 24.380952-24.380953v-12.190476c0-12.190476-9.752381-24.380952-24.380952-24.380952z m0 138.971428H195.047619c-14.628571 0-24.380952 9.752381-24.380952 24.380953v12.190476c0 12.190476 12.190476 24.380952 24.380952 24.380952h48.761905c12.190476 0 24.380952-12.190476 24.380952-24.380952v-12.190476c0-12.190476-9.752381-24.380952-24.380952-24.380953z"  /></svg>